<svg xmlns="http://www.w3.org/2000/svg" xmlns:xlink="http://www.w3.org/1999/xlink" viewBox="0 0 157.13 121.7"><defs><style>.cls-1{fill:#779097;}.cls-1,.cls-2{fill-rule:evenodd;}.cls-2{fill:url(#GradientFill_1);}</style><radialGradient id="GradientFill_1" cx="78.57" cy="60.85" r="55.59" gradientUnits="userSpaceOnUse"><stop offset="0" stop-color="#fff"/><stop offset="0.31" stop-color="#fff"/><stop offset="1" stop-color="#f2f2f1"/></radialGradient></defs><g id="Calque_2" data-name="Calque 2"><g id="Layer_2" data-name="Layer 2"><path class="cls-1" d="M82,30,86.8,15.13h49.33a21,21,0,0,1,21,20.35v1.23a21.49,21.49,0,0,1-1,5.84L135.41,107.1a21,21,0,0,1-34,9.21L78.57,95.82v-10l27.76,24.94a13.59,13.59,0,0,0,22-6l20.71-64.56a13.59,13.59,0,0,0-12.93-17.74H92.21l-6.7,20.89-6.94-6.56V26.67ZM78.57,95.82l-3.49-3.14-4.75,14.81H21A21,21,0,0,1,0,87.14V85.91a21.06,21.06,0,0,1,1-5.83L22,14.59A21,21,0,0,1,56.42,5.74L78.57,26.67v10.2L51.33,11.13a13.59,13.59,0,0,0-22.27,5.73l-21,65.48A13.58,13.58,0,0,0,21,100.07h43.9l6.6-20.56,7.06,6.34Z"/></g><g id="Layer_3" data-name="Layer 3"><path class="cls-2" d="M115.78,30h20.34A6.17,6.17,0,0,1,142,38l-20.71,64.56a6,6,0,0,1-4.27,4.07,5.37,5.37,0,0,1-1.24.21V55.73l8.79,6.42L121.19,51.8,130,45.42l-10.89,0-3.34-10.37ZM46.23,16.52,113.4,80,91.07,50.38,97.62,30h18.16v5.11l-3.35,10.37-10.88,0,8.82,6.38L107,62.15l8.8-6.42v51.12a6,6,0,0,1-4.49-1.57l-63-56.59L66.06,72.23,59.5,92.66H40.79V79.5l8.8,6.41L46.2,75.57,55,69.18l-10.88,0L40.79,58.84V15A6,6,0,0,1,46.23,16.52ZM40.79,92.66H21a6.18,6.18,0,0,1-5.88-8.06l21-65.48A6,6,0,0,1,40.46,15l.33-.07V58.84L37.45,69.2l-10.89,0,8.82,6.39L32,85.91l8.8-6.41Z"/></g></g></svg>