<svg xmlns="http://www.w3.org/2000/svg" xmlns:xlink="http://www.w3.org/1999/xlink" viewBox="0 0 716.13 645.66"><defs><style>.cls-1{fill:none;}.cls-2{isolation:isolate;}.cls-3{fill:#412116;}.cls-4,.cls-7{fill:#ef591a;}.cls-32,.cls-5{opacity:0.5;}.cls-6{clip-path:url(#clip-path);}.cls-7{mix-blend-mode:multiply;}.cls-8{fill:#643829;}.cls-9{fill:#fcc600;}.cls-10{fill:#f0791f;}.cls-11{fill:#4d2a17;}.cls-12{fill:#fbe128;}.cls-13{fill:#ed6204;}.cls-14{fill:#dba703;}.cls-15{clip-path:url(#clip-path-2);}.cls-16,.cls-21,.cls-32{fill:#fff;}.cls-17{fill:#f17726;}.cls-18{fill:#ce4f09;}.cls-19{fill:#e6e6e6;}.cls-20{fill:#ec610b;}.cls-21{font-size:93.05px;font-family:BreeSerif-Regular, BreeSerif Regular;letter-spacing:0.04em;}.cls-22{fill:#0071bc;}.cls-23{fill:#633b30;}.cls-24{fill:#29abe2;}.cls-25{fill:#fcd600;}.cls-26{fill:#4d4d4d;}.cls-27{fill:#f0b800;}.cls-28{fill:#ef8200;}.cls-29{fill:#3f3f3f;}.cls-30{fill:#ef9300;}.cls-31{fill:#2b2a2d;}.cls-32{mix-blend-mode:soft-light;}</style><clipPath id="clip-path" transform="translate(-15.39 -93.85)"><circle class="cls-1" cx="146" cy="389" r="79"/></clipPath><clipPath id="clip-path-2" transform="translate(-15.39 -93.85)"><path class="cls-1" d="M680.13,581.35a32.87,32.87,0,1,1-32.86-32.86A32.86,32.86,0,0,1,680.13,581.35Z"/></clipPath></defs><g class="cls-2"><g id="OBJECTS"><circle class="cls-3" cx="130.61" cy="295.15" r="79"/><path class="cls-4" d="M140.36,359.88c1.12-1.63,2.24-3.23,3.38-4.8,1.75-2.41,3.51-4.75,5.28-7,13.57,6.26,27,7.56,39.3,8.75,9.08.88,17.45,1.7,24.54,4.49l.39,1,.18.45.36.94c.05.16.11.33.17.49.12.32.24.63.35.95l.12.37c.22.64.44,1.29.64,1.94,0,.13.09.27.13.41l.27.93c.06.19.11.38.17.57s.17.6.25.9l.15.6.24.9c0,.16.07.32.11.47l.39,1.74c0,.22.09.44.14.66s.11.57.16.86.1.47.14.71.1.55.14.83.09.52.13.78.1.64.14,1,.12.83.17,1.25l.09.74c0,.29.07.57.09.86s.05.5.08.75.05.59.07.89l.06.72c0,.38,0,.77.07,1.15l0,.76c0,.4,0,.81.05,1.22,0,.21,0,.43,0,.65s0,.66,0,1v.66c0,.36,0,.71,0,1.07,0,.19,0,.38,0,.57,0,.53,0,1-.06,1.59l0,.42c0,.41-.05.82-.08,1.23,0,.2,0,.4,0,.6,0,.36-.06.73-.1,1.1,0,.19,0,.39,0,.58-.05.43-.1.87-.16,1.3,0,.12,0,.24,0,.36-.07.55-.15,1.09-.23,1.64,0,.16-.05.31-.07.47l-.21,1.21c0,.19-.07.38-.1.57-.07.39-.15.78-.23,1.17,0,.17-.07.35-.1.52-.12.55-.24,1.11-.37,1.66s-.28,1.17-.43,1.75c-.08.29-.15.58-.23.86l-.24.86c-.11.38-.22.76-.34,1.14-.05.18-.1.36-.16.54-.14.44-.28.88-.43,1.32,0,.11-.07.22-.1.32L214,413.7l-.06.17c-.19.51-.38,1-.58,1.53,0,0,0,0,0,.06-.41,1.06-.85,2.1-1.31,3.14C197.2,392.32,168.9,372.67,140.36,359.88Z" transform="translate(-15.39 -93.85)"/><path class="cls-4" d="M90,384.42c10-7.16,22-11.43,34.51-6.37-9.42,17.57-16.73,37-19.12,56.12a104.78,104.78,0,0,0-.82,14.42l-.16-.11c-.45-.31-.88-.62-1.32-.94l-.34-.26-1.12-.84-.41-.33-1-.81-.43-.36-1-.81-.45-.39-.93-.82-.43-.4-.91-.84-.43-.41-.88-.87-.41-.41-.88-.9c-.13-.14-.26-.27-.38-.41-.3-.31-.59-.63-.88-.95-.11-.13-.23-.25-.35-.38l-.88-1-.31-.35c-.31-.36-.61-.74-.92-1.11l-.23-.28c-.34-.42-.68-.85-1-1.28a1.47,1.47,0,0,0-.1-.13c-1.5-2-2.9-4-4.2-6.08h0c-.32-.51-.62-1-.93-1.54,0-.06-.07-.12-.1-.19-.27-.46-.53-.92-.79-1.39l-.15-.27c-.24-.44-.48-.88-.71-1.33l-.17-.33c-.22-.42-.44-.86-.65-1.3-.05-.12-.11-.24-.17-.36-.21-.42-.41-.86-.61-1.29l-.16-.37c-.2-.43-.39-.87-.58-1.31L79,417c-.19-.44-.37-.89-.55-1.34a3.65,3.65,0,0,1-.14-.35c-.18-.46-.36-.92-.53-1.38l-.12-.32-.51-1.46c0-.09-.06-.17-.08-.26-.18-.52-.35-1.05-.51-1.58,0-.05,0-.1,0-.15a71.75,71.75,0,0,1-2.44-10.93h0A94.11,94.11,0,0,1,90,384.42Z" transform="translate(-15.39 -93.85)"/><path class="cls-4" d="M183.32,451.05l0,0c-.49.3-1,.59-1.48.87l0,0c-.5.28-1,.56-1.51.83l0,0-1.54.81h0l-1.56.78h0a72.39,72.39,0,0,1-9.83,3.86q-.36-1.58-.75-3.21c-6.54-27.9-15.74-67.14-36.34-78.83,2.49-4.44,5.12-8.74,7.83-12.86l.46.2c28.83,12.9,57.4,32.86,71.33,59.58a71.9,71.9,0,0,1-3.7,6.17h0l-1,1.47h0c-.34.48-.69,1-1,1.43h0c-.35.47-.71.94-1.07,1.4v0c-.36.46-.73.92-1.1,1.37a0,0,0,0,0,0,0l-1.13,1.33,0,0c-.38.44-.76.88-1.15,1.3l0,0q-.57.63-1.17,1.26l0,0-1.2,1.22,0,0-1.22,1.19,0,0-1.25,1.16-.05,0-1.27,1.13-.05,0c-.43.37-.86.74-1.3,1.1l0,0c-.44.35-.88.71-1.33,1.05l0,0-1.35,1,0,0c-.45.33-.91.67-1.37,1l-.05,0c-.46.33-.93.65-1.4,1l0,0c-.48.31-.95.63-1.43.93l0,0C184.3,450.46,183.81,450.76,183.32,451.05Z" transform="translate(-15.39 -93.85)"/><path class="cls-4" d="M127.25,459.06l-1.15-.31-.55-.16-1.22-.37-.39-.12-1.51-.49-.61-.21-.92-.34-.71-.26-.82-.31-.72-.29-1-.41-1.17-.51-.57-.26-.9-.41-.48-.23-1-.46,0,0c-.77-.39-1.53-.79-2.28-1.19l-.14-.08-1-.58-.25-.15-1.06-.61a97.74,97.74,0,0,1,.71-16.6c2.33-18.63,9.5-37.65,18.75-54.85,19,10.79,28,49,34.33,76.15l.79,3.38-.12,0c-.58.15-1.17.28-1.75.41l-.65.14-1.26.26-.74.13c-.4.08-.8.14-1.21.21l-.75.12-1.25.18-.69.09-1.55.18-.4.05-1.94.16-.58,0-1.4.08-.73,0-1.26,0h-2.77l-1.44-.05-.56,0c-.67,0-1.33-.07-2-.12l-.41,0-1.6-.15-.7-.08-1.32-.16-.77-.12-1.28-.19-.75-.13-1.38-.26-.65-.12c-.67-.14-1.34-.28-2-.44l-1.64-.4Z" transform="translate(-15.39 -93.85)"/><path class="cls-4" d="M111.38,325.24l.15-.09c1.51-.81,3.06-1.57,4.63-2.28l.12-.06q2.39-1.06,4.84-2l.08,0c.83-.3,1.66-.58,2.5-.85h0c.64,8.46,5.63,17.85,21.55,26.24-1.64,2.08-3.26,4.24-4.86,6.45-1.31,1.8-2.6,3.65-3.88,5.53a218.28,218.28,0,0,0-47.4-14.33h0c.54-.68,1.1-1.36,1.67-2l.08-.09q1.71-2,3.54-3.83l.11-.11q1.83-1.83,3.78-3.51a.81.81,0,0,1,.14-.12q1.94-1.68,4-3.22l.16-.11q2.05-1.53,4.21-2.91l.16-.1Q109.12,326.45,111.38,325.24Z" transform="translate(-15.39 -93.85)"/><path class="cls-4" d="M164.55,319l1.66.46.16.05,1.8.56h0l1.89.64h0a142.24,142.24,0,0,0-22.19,22.26c-15.07-7.76-19.5-16.45-19.92-24.19h0c2-.52,4-.95,6.1-1.28l.25,0,1.78-.26.31,0,1.85-.22.18,0c1.39-.14,2.78-.25,4.17-.31h.23l1.78-.06h2.61l1.58.05.47,0c1.37.07,2.74.17,4.11.32l.56.06,1.47.18.72.1,1.34.21.74.12,1.4.26.65.13c.68.14,1.35.28,2,.44s1.3.31,1.93.48Z" transform="translate(-15.39 -93.85)"/><path class="cls-4" d="M188.73,352.74c-11.62-1.12-24.37-2.36-37-8,8-9.76,16-17.53,22.77-22.38l.92.4.64.29.88.41.66.31.86.43.65.33.86.45.63.34.85.47.61.34.86.51.55.33.89.54.46.3c1.56,1,3.09,2.05,4.56,3.15a3.92,3.92,0,0,1,.32.25l.93.71.37.29.9.73.36.31.89.74.34.3.9.79.27.25.94.87.15.14a71.51,71.51,0,0,1,6.21,6.7l.08.08c.3.38.61.75.9,1.13l.08.11c.3.38.6.77.89,1.16l0,.06a72.21,72.21,0,0,1,6.55,10.52C203.88,354.21,196.55,353.5,188.73,352.74Z" transform="translate(-15.39 -93.85)"/><path class="cls-4" d="M75.85,370.16c.11-.38.21-.76.32-1.13s.14-.51.22-.76.19-.65.29-1l.27-.82c.09-.29.19-.58.28-.87s.21-.58.31-.87l.29-.81c.11-.3.22-.6.34-.9s.18-.49.29-.74l.37-.93c.1-.23.19-.47.29-.69s.27-.64.41-1,.19-.42.29-.64.29-.65.45-1,.18-.4.28-.6.32-.66.49-1l.27-.54.53-1,.27-.49c.18-.35.38-.69.57-1l.25-.43c.2-.36.41-.72.62-1.07l.23-.38.67-1.1.2-.31.74-1.14.15-.23.81-1.19h0c13.72,2.15,30.66,6.88,47.82,14.14-2.66,4.08-5.24,8.34-7.7,12.72-14.29-6-27.74-1.34-38.91,6.65A93.08,93.08,0,0,0,73.5,393.73c-.08-1.26-.13-2.52-.15-3.8v-.26c0-1.15,0-2.3.05-3.46,0-.16,0-.32,0-.48l.06-1c0-.22,0-.44,0-.66l.06-.88c0-.46.08-.93.13-1.39,0-.23.05-.46.07-.69s.07-.64.11-1l.09-.67c0-.38.11-.77.16-1.15,0-.15,0-.3.07-.45.08-.52.17-1.05.26-1.57l.09-.49c.07-.4.15-.81.24-1.21l.09-.49.36-1.63c.14-.59.29-1.18.44-1.77C75.74,370.56,75.8,370.36,75.85,370.16Z" transform="translate(-15.39 -93.85)"/><g class="cls-5"><g class="cls-6"><rect class="cls-7" x="-12.52" y="313.91" width="252.94" height="94.21" transform="translate(-275.38 208.16) rotate(-63.52)"/></g></g><rect class="cls-8" x="604.8" y="613.66" width="56" height="23"/><rect class="cls-9" x="623.8" y="589.66" width="18" height="24"/><polygon class="cls-9" points="650.59 605.66 615.04 605.66 585.81 520.66 679.83 520.66 650.59 605.66"/><polygon class="cls-8" points="633.8 613.66 623.64 613.66 604.8 613.66 604.8 636.66 633.8 636.66 633.8 613.66"/><rect class="cls-9" x="623.8" y="605.66" width="10" height="8"/><polygon class="cls-10" points="605.3 636.66 601.09 636.66 593.83 645.66 633.8 645.66 633.8 636.66 605.3 636.66"/><polygon class="cls-9" points="633.8 589.66 633.8 520.66 585.81 520.66 615.04 605.66 623.8 605.66 623.8 589.66 633.8 589.66"/><rect class="cls-9" x="623.8" y="589.66" width="10" height="16"/><polygon class="cls-11" points="633.8 636.66 660.8 636.66 660.8 613.66 641.99 613.66 633.8 613.66 633.8 636.66"/><rect class="cls-12" x="633.8" y="605.66" width="8" height="8"/><polygon class="cls-13" points="664.54 636.66 660.34 636.66 633.8 636.66 633.8 645.66 671.81 645.66 664.54 636.66"/><polygon class="cls-12" points="633.8 520.66 633.8 589.4 633.8 605.66 641.99 605.66 650.59 605.66 679.83 520.66 633.8 520.66"/><rect class="cls-14" x="623.8" y="605.66" width="18" height="1"/><path class="cls-3" d="M680.13,581.35a32.87,32.87,0,1,1-32.86-32.86A32.86,32.86,0,0,1,680.13,581.35Z" transform="translate(-15.39 -93.85)"/><path class="cls-4" d="M644.92,569.21c.46-.68.93-1.34,1.4-2,.73-1,1.47-2,2.2-2.91,5.65,2.61,11.25,3.15,16.35,3.64,3.78.37,7.26.71,10.21,1.87l.16.4a1.46,1.46,0,0,1,.07.19,3.12,3.12,0,0,1,.15.39l.08.2c.05.14.09.27.14.4s0,.1.05.15c.1.27.18.54.27.81a.84.84,0,0,1,0,.17l.12.38.06.24.11.38.06.25c0,.12.07.25.1.37l0,.2c.05.24.11.48.16.72l.06.28c0,.12,0,.23.07.35s0,.2,0,.3l.06.34.06.33.06.4.06.52c0,.1,0,.21,0,.3s0,.24,0,.36l0,.32,0,.37a2.83,2.83,0,0,1,0,.29c0,.16,0,.32,0,.49s0,.2,0,.31,0,.34,0,.51v.27c0,.14,0,.27,0,.41v.28c0,.15,0,.3,0,.44a1.93,1.93,0,0,1,0,.24c0,.22,0,.44,0,.66a1.09,1.09,0,0,0,0,.18c0,.17,0,.34,0,.51a2.11,2.11,0,0,1,0,.25c0,.15,0,.3,0,.45s0,.17,0,.25l-.06.54,0,.15c0,.23-.06.45-.1.68l0,.2c0,.16,0,.33-.08.5s0,.16,0,.24l-.09.48a1.7,1.7,0,0,0,0,.22c-.05.23-.1.46-.16.69s-.11.49-.18.73l-.09.36c0,.12-.07.23-.1.35s-.09.32-.14.48l-.07.22-.18.55s0,.09,0,.13l-.21.61,0,.07q-.1.32-.24.63v0c-.17.44-.35.88-.54,1.3C668.56,582.71,656.79,574.53,644.92,569.21Z" transform="translate(-15.39 -93.85)"/><path class="cls-4" d="M624,579.42c4.16-3,9.13-4.76,14.35-2.65-3.92,7.3-7,15.4-7.95,23.34a43.47,43.47,0,0,0-.34,6l-.07-.05c-.18-.12-.37-.25-.55-.39l-.14-.1-.47-.35-.17-.14-.42-.34-.18-.15-.4-.33-.19-.16-.39-.35-.18-.16-.38-.35-.18-.17-.36-.36-.18-.18-.36-.37-.16-.17-.36-.39-.15-.17-.37-.42-.12-.14-.39-.46-.09-.12-.42-.53-.05-.06c-.62-.81-1.2-1.66-1.74-2.53h0l-.39-.64,0-.08-.33-.58-.06-.11-.3-.56-.07-.13-.27-.54a1,1,0,0,0-.07-.15l-.25-.54-.07-.15-.24-.55-.06-.15c-.08-.19-.16-.37-.23-.56l-.06-.14c-.08-.2-.15-.39-.22-.58a.5.5,0,0,0,0-.13l-.21-.61a.49.49,0,0,0,0-.11l-.21-.66a.14.14,0,0,0,0-.06,31.73,31.73,0,0,1-1-4.54h0A38.83,38.83,0,0,1,624,579.42Z" transform="translate(-15.39 -93.85)"/><path class="cls-4" d="M662.79,607.13h0l-.62.37h0l-.63.35h0l-.64.33h0l-.66.32h0a29.76,29.76,0,0,1-4.08,1.6c-.11-.43-.21-.88-.32-1.33-2.72-11.61-6.55-27.93-15.12-32.79,1-1.85,2.13-3.64,3.26-5.35l.19.08c12,5.37,23.88,13.67,29.67,24.79-.47.88-1,1.74-1.53,2.56h0l-.42.61h0c-.15.2-.29.4-.44.59h0c-.15.19-.29.39-.45.58h0c-.15.19-.3.38-.46.56h0c-.16.19-.31.38-.47.56h0l-.48.54h0l-.49.53h0l-.5.51h0c-.16.17-.33.34-.51.5v0l-.52.48h0l-.53.47,0,0-.54.46h0c-.18.15-.36.3-.55.44l0,0c-.18.14-.37.29-.56.42l0,0-.57.41,0,0-.58.4h0l-.6.39h0Z" transform="translate(-15.39 -93.85)"/><path class="cls-4" d="M639.46,610.47l-.47-.13-.23-.07-.51-.15-.16,0-.63-.21-.25-.08-.39-.14-.29-.11-.34-.13-.3-.12-.42-.17-.49-.22-.24-.1-.37-.17-.2-.1-.4-.19h0l-1-.5-.06,0-.43-.24-.1-.06-.44-.25a40.22,40.22,0,0,1,.29-6.91c1-7.75,4-15.67,7.8-22.82,7.91,4.49,11.63,20.38,14.28,31.68l.33,1.41h-.05l-.73.17-.27.06-.52.1-.31.06-.5.09-.31,0-.53.07-.28,0-.65.07-.16,0-.81.07-.24,0-.58,0h-2l-.59,0h-.24l-.83-.06h-.17l-.66-.06-.29,0-.55-.07-.32,0-.54-.08L642,611l-.57-.1-.27-.06-.84-.18-.69-.17Z" transform="translate(-15.39 -93.85)"/><path class="cls-4" d="M632.86,554.8l.07,0c.63-.34,1.27-.65,1.92-1l0,0c.66-.3,1.33-.57,2-.82h0l1-.35h0c.27,3.52,2.34,7.42,9,10.91-.68.87-1.35,1.76-2,2.69-.54.75-1.08,1.51-1.61,2.3a91.55,91.55,0,0,0-19.72-6h0c.23-.28.46-.57.7-.84l0,0q.72-.82,1.47-1.59l.05-.05c.51-.5,1-1,1.57-1.46l.06,0c.54-.46,1.09-.91,1.66-1.34l.07,0c.57-.43,1.15-.83,1.75-1.21l.06,0C631.62,555.49,632.24,555.13,632.86,554.8Z" transform="translate(-15.39 -93.85)"/><path class="cls-4" d="M655,552.19l.69.19.07,0,.75.23h0c.27.09.53.17.79.27h0a58.33,58.33,0,0,0-9.23,9.26c-6.27-3.23-8.11-6.85-8.29-10.07h0c.83-.21,1.68-.39,2.54-.53l.1,0,.74-.11h.13l.77-.1h.08c.57-.06,1.15-.11,1.73-.13h.1c.24,0,.49,0,.74,0h1.08l.66,0h.2c.56,0,1.13.07,1.7.13l.24,0,.61.08.3,0,.56.09.3.05.59.11.27,0,.84.18.81.2Z" transform="translate(-15.39 -93.85)"/><path class="cls-4" d="M665,566.24c-4.83-.47-10.14-1-15.41-3.32a54.26,54.26,0,0,1,9.47-9.31l.39.17.26.11.37.18.27.13a3,3,0,0,1,.36.18l.27.13.36.19.26.14.36.2.25.14.36.21.23.14.37.22.19.12q1,.63,1.89,1.32l.14.1a3.57,3.57,0,0,1,.38.3l.16.12.37.3.15.13.37.31.14.12.38.33.11.1.39.37.06,0a29.61,29.61,0,0,1,2.59,2.79l0,0,.38.48,0,0,.37.48,0,0a29.81,29.81,0,0,1,2.72,4.37A50.25,50.25,0,0,0,665,566.24Z" transform="translate(-15.39 -93.85)"/><path class="cls-4" d="M618.08,573.48c0-.15.09-.31.13-.47l.1-.31.12-.41c0-.11.07-.22.11-.33l.12-.37c0-.12.08-.24.13-.36l.12-.34c0-.12.09-.25.14-.37l.12-.31.15-.39.12-.28.18-.4c0-.09.07-.18.11-.27l.19-.4.12-.25c.06-.14.13-.28.2-.42l.11-.22.23-.43.11-.2.23-.43.11-.18c.08-.15.17-.3.26-.45l.09-.16.28-.45.09-.13.3-.47a.36.36,0,0,1,.07-.1l.33-.49h0A87.59,87.59,0,0,1,642.35,570c-1.11,1.7-2.18,3.47-3.21,5.29-5.94-2.51-11.53-.55-16.18,2.77a38.17,38.17,0,0,0-5.85,5.27c0-.52-.06-1-.07-1.58v-.11c0-.47,0-1,0-1.44V580l0-.39v-.28l0-.36c0-.2,0-.39.05-.58l0-.29c0-.13,0-.27,0-.4l0-.28c0-.16.05-.32.07-.47l0-.19c0-.22.07-.44.11-.66,0-.06,0-.13,0-.2l.09-.5c0-.07,0-.14.05-.21s.09-.45.15-.68.11-.49.18-.73Z" transform="translate(-15.39 -93.85)"/><g class="cls-5"><g class="cls-15"><rect class="cls-7" x="629.8" y="446.66" width="40" height="78"/></g></g><path class="cls-4" d="M646.91,307.77v-4.22c-4-.09-15.8-1.92-21.65-18.58l-4.59,1.48C628.37,306.22,641.91,307.82,646.91,307.77Z" transform="translate(-15.39 -93.85)"/><path class="cls-4" d="M599.27,292.8l-4.2,1.1s9.9,44.2-30.17,49.94l.8,4.8C611.15,337.13,599.27,292.8,599.27,292.8Z" transform="translate(-15.39 -93.85)"/><path class="cls-16" d="M602.76,291.8l14.76-4.36c6.56,23.63,24.39,25.34,29.39,25.3v-5c-5,.05-18.6-1.55-26.31-21.32l-21.26,6.35s11.84,44.33-33.61,55.84l.82,5C616.37,346.21,602.76,291.8,602.76,291.8Z" transform="translate(-15.39 -93.85)"/><path class="cls-17" d="M617.52,287.44l-14.7,4.36s13.57,54.41-36.25,61.87L578,422.35,573.09,471c3,1.5,23.82,11.1,73.82,11.3V312.74C641.91,312.78,624.08,311.07,617.52,287.44Z" transform="translate(-15.39 -93.85)"/><path class="cls-17" d="M648.34,307.68s18.33,2.74,27.67-21.23L671.32,285c-7.23,20.57-23,18.53-23,18.53a9.25,9.25,0,0,1-1.44.05v4.22A9.43,9.43,0,0,0,648.34,307.68Z" transform="translate(-15.39 -93.85)"/><path class="cls-18" d="M730.71,348.64l.8-4.8c-40.07-5.74-30.17-49.94-30.17-49.94l-4.2-1.1S685.26,337.13,730.71,348.64Z" transform="translate(-15.39 -93.85)"/><path class="cls-19" d="M648.34,307.68a9.43,9.43,0,0,1-1.43.09v5a10.84,10.84,0,0,0,1.43-.08s23,2.8,30.75-25.22l14.6,4.36s-13.61,54.41,36.21,61.87l.82-5c-45.45-11.51-33.58-55.84-33.58-55.84L676,286.45C666.67,310.42,648.34,307.68,648.34,307.68Z" transform="translate(-15.39 -93.85)"/><path class="cls-20" d="M723.46,471l-5-48.66,11.42-68.68c-49.82-7.46-36.22-61.87-36.22-61.87L679,287.44c-7.79,28-30.69,25.22-30.69,25.22a10.84,10.84,0,0,1-1.43.08V482.31h1.43C699.17,482.32,720.45,472.53,723.46,471Z" transform="translate(-15.39 -93.85)"/><path class="cls-4" d="M572.42,476.19c.07-.61.14-1.27.2-2Z" transform="translate(-15.39 -93.85)"/><path class="cls-4" d="M572.55,476.19l-.93,4.33s21.29,12.26,75.29,12.5v-5.11C596.91,487.67,572.55,476.19,572.55,476.19Z" transform="translate(-15.39 -93.85)"/><path class="cls-16" d="M565.7,348.64s.18,1.85.47,5.09l.37-.06Z" transform="translate(-15.39 -93.85)"/><path class="cls-16" d="M572.84,471c-.06,1.18-.13,2.27-.22,3.28L573,471Z" transform="translate(-15.39 -93.85)"/><path class="cls-16" d="M646.91,482.31c-50-.2-70.85-9.8-73.83-11.3l-.4,3.22c-.06.69,0,1.35-.1,2,0,0,24.33,11.48,74.33,11.72Z" transform="translate(-15.39 -93.85)"/><path class="cls-17" d="M723.79,474.23c.07.69.13,1.35.21,2Z" transform="translate(-15.39 -93.85)"/><path class="cls-18" d="M725,480.52l-1-4.33s-25.23,11.73-75.66,11.73h-1.43V493h1.43C703.06,493,725,480.52,725,480.52Z" transform="translate(-15.39 -93.85)"/><path class="cls-17" d="M723.79,474.23c-.08-1-.16-2.1-.21-3.28l-.12.06Z" transform="translate(-15.39 -93.85)"/><path class="cls-17" d="M730.24,353.73l.47-5.09-.83,5Z" transform="translate(-15.39 -93.85)"/><path class="cls-19" d="M648.34,482.32h-1.43v5.6h1.43c50.43,0,75.72-11.73,75.72-11.73-.07-.61-.17-1.27-.23-2l-.29-3.22C720.53,472.53,699.17,482.32,648.34,482.32Z" transform="translate(-15.39 -93.85)"/><text class="cls-21" transform="translate(580.36 328.28)">08</text><rect class="cls-17" x="552.67" width="160.29" height="9.03"/><rect class="cls-20" x="632.82" width="80.14" height="9.03"/><path class="cls-1" d="M602.48,164.37c1,7.67,1.84,16.12,2.48,25.43l10-11.67Z" transform="translate(-15.39 -93.85)"/><polygon class="cls-1" points="613.55 67.92 598.64 52.71 586.79 63.83 602.34 81.02 613.55 67.92"/><path class="cls-1" d="M606.22,222.1l8.39-9.43-9-10.93Q606.09,211.37,606.22,222.1Z" transform="translate(-15.39 -93.85)"/><polygon class="cls-1" points="602.43 87.47 590.48 101.44 602.1 115.6 614.89 101.23 602.43 87.47"/><path class="cls-1" d="M595.14,127.3a233.26,233.26,0,0,1,5.67,25.82l10.24-9.6Z" transform="translate(-15.39 -93.85)"/><polygon class="cls-1" points="619.32 67.72 632.5 81.38 632.82 80.84 632.82 52.69 632.5 52.07 619.32 67.72"/><polygon class="cls-1" points="620.61 101.21 632.5 114.57 632.82 113.98 632.82 88.21 632.5 87.62 620.61 101.21"/><polygon class="cls-1" points="604.83 118.93 616.82 133.54 629.89 117.8 617.76 104.4 604.83 118.93"/><polygon class="cls-1" points="605.22 84.2 617.74 98.03 629.79 84.48 616.54 70.97 605.22 84.2"/><polygon class="cls-1" points="629.75 48.97 616.06 36.38 601.75 49.8 616.32 64.67 629.75 48.97"/><path class="cls-16" d="M647.88,208.41l-12-13.35,11.94-13.59.38.59v-7.37l-.33.53L634.6,161.57l13.23-15.65.38.61v-7.29l-.33.48-14.46-13.19c-.29-7-3.45-16.88-5.85-23.65H623c2.31,6.77,5.92,16.91,6.22,23.76l-15.1,14.07L592.3,118.57c-2.41-6.86-4.82-12.3-7-15.69H578c7.3,11.29,21.93,43.8,21.93,128.06a3.11,3.11,0,0,0,3.2,3.1,3.24,3.24,0,0,0,3.19-3.25c0-.77,0-1.55,0-2.31L617.35,216l14.83,18.07,15.7-19.17.33.63v-7.72Zm-2.7-30.08-12.06,13.55-12.51-13.83,11.32-13.23Zm-13.73-48.1,13.69,12.59-13.43,15.7-14.57-14.87Zm-30.64,22.89a233.26,233.26,0,0,0-5.67-25.82l15.91,16.22ZM614,146.56l14.91,15.21-11.22,13.1-15.55-17.19ZM605,189.8c-.64-9.31-1.48-17.76-2.48-25.43l12.46,13.76Zm1.26,32.3q-.13-10.74-.57-20.36l9,10.93Zm-.35-26.81,12-14,12.46,13.76-12.8,14.37Zm26.34,32.1-12-14.61,12.94-14.53,12.13,13.4Z" transform="translate(-15.39 -93.85)"/><path class="cls-19" d="M678.83,216l11.09,12.44c0,.76,0,1.52,0,2.29a3.19,3.19,0,0,0,3.19,3.19,3,3,0,0,0,3.19-3c0-83.76,14.77-116.77,22.05-128.06h-7.49a81.77,81.77,0,0,0-7,15.64L682,140.71l-15.1-14c.29-6.84,3.91-17,6.21-23.81h-4.53c-2.39,6.77-5.86,16.7-6.15,23.67l-14.25,12.69v7.29l12.86,15-12.86,13.12v7.37l11.57,13-11.57,12.77v7.72l15.59,18.54Zm-.13-6.56-12.79-14.37,12.45-13.76,12,14ZM690,222.1l-8.39-9.43,9-10.93Q690.11,211.37,690,222.1Zm1.26-32.3-10-11.67,12.46-13.76C692.71,172,691.86,180.49,691.22,189.8ZM701,127.3a233.26,233.26,0,0,0-5.67,25.82l-10.23-9.6Zm-18.88,19.26L694,157.68l-15.55,17.19-11.21-13.1ZM651,142.82l13.7-12.59,14.31,13.42-14.57,14.87Zm0,35.51,13.25-13.51,11.32,13.23-12.52,13.83Zm-.1,33.32L663,198.25,676,212.78l-12,14.61Z" transform="translate(-15.39 -93.85)"/><rect class="cls-17" x="50.47" width="160.29" height="9.03"/><rect class="cls-20" x="130.61" width="80.14" height="9.03"/><path class="cls-1" d="M100.27,164.37c1,7.67,1.85,16.12,2.48,25.43l10-11.67Z" transform="translate(-15.39 -93.85)"/><polygon class="cls-1" points="111.34 67.92 96.43 52.71 84.58 63.83 100.13 81.02 111.34 67.92"/><path class="cls-1" d="M104,222.1l8.39-9.43-9-10.93Q103.88,211.37,104,222.1Z" transform="translate(-15.39 -93.85)"/><polygon class="cls-1" points="100.23 87.47 88.27 101.44 99.89 115.6 112.68 101.23 100.23 87.47"/><path class="cls-1" d="M92.93,127.3a233.05,233.05,0,0,1,5.68,25.82l10.23-9.6Z" transform="translate(-15.39 -93.85)"/><polygon class="cls-1" points="117.11 67.72 130.29 81.38 130.61 80.84 130.61 52.69 130.29 52.07 117.11 67.72"/><polygon class="cls-1" points="118.41 101.21 130.29 114.57 130.61 113.98 130.61 88.21 130.29 87.62 118.41 101.21"/><polygon class="cls-1" points="102.62 118.93 114.61 133.54 127.68 117.8 115.56 104.4 102.62 118.93"/><polygon class="cls-1" points="103.01 84.2 115.53 98.03 127.59 84.48 114.34 70.97 103.01 84.2"/><polygon class="cls-1" points="127.55 48.97 113.85 36.38 99.54 49.8 114.12 64.67 127.55 48.97"/><path class="cls-16" d="M145.68,208.41l-12-13.35,11.94-13.59.37.59v-7.37l-.32.53L132.4,161.57l13.23-15.65.37.61v-7.29l-.32.48-14.47-13.19c-.29-7-3.45-16.88-5.84-23.65h-4.53c2.3,6.77,5.91,16.91,6.21,23.76L112,140.71,90.09,118.57a81.77,81.77,0,0,0-7-15.69H75.75c7.3,11.29,21.94,43.8,21.94,128.06a3.1,3.1,0,0,0,3.19,3.1,3.24,3.24,0,0,0,3.19-3.25v-2.31L115.14,216,130,234.09l15.7-19.17.32.63v-7.72ZM143,178.33l-12.05,13.55L118.4,178.05l11.32-13.23Zm-13.73-48.1,13.7,12.59-13.44,15.7-14.57-14.87ZM98.61,153.12a233.05,233.05,0,0,0-5.68-25.82l15.91,16.22Zm13.21-6.56,14.91,15.21-11.21,13.1L100,157.68Zm-9.07,43.24c-.63-9.31-1.48-17.76-2.48-25.43l12.46,13.76ZM104,222.1q-.13-10.74-.58-20.36l9,10.93Zm-.36-26.81,12-14,12.46,13.76-12.79,14.37ZM130,227.39l-12-14.61L131,198.25l12.12,13.4Z" transform="translate(-15.39 -93.85)"/><path class="cls-19" d="M176.63,216l11.08,12.44c0,.76,0,1.52,0,2.29a3.19,3.19,0,0,0,3.19,3.19,3,3,0,0,0,3.19-3c0-83.76,14.78-116.77,22.06-128.06h-7.49a81.69,81.69,0,0,0-7,15.64l-21.85,22.19-15.11-14c.29-6.84,3.91-17,6.21-23.81H166.4c-2.39,6.77-5.86,16.7-6.14,23.67L146,139.24v7.29l12.87,15L146,174.69v7.37l11.57,13L146,207.83v7.72l15.59,18.54Zm-.13-6.56-12.8-14.37,12.46-13.76,12,14Zm11.26,12.65-8.4-9.43,9-10.93Q187.89,211.37,187.76,222.1ZM189,189.8l-10-11.67,12.46-13.76C190.5,172,189.66,180.49,189,189.8Zm9.81-62.5a235.57,235.57,0,0,0-5.67,25.82l-10.23-9.6ZM180,146.56l11.85,11.12-15.55,17.19L165,161.77Zm-31.11-3.74,13.7-12.59,14.3,13.42-14.57,14.87Zm0,35.51,13.25-13.51,11.32,13.23-12.51,13.83Zm-.09,33.32,12.12-13.4,12.94,14.53-12,14.61Z" transform="translate(-15.39 -93.85)"/><rect class="cls-3" x="296.11" y="461.49" width="177" height="102"/><rect class="cls-22" x="306.11" y="470.49" width="158" height="84"/><polygon class="cls-23" points="306.11 554.49 306.11 470.49 385.11 470.49 385.11 461.49 296.11 461.49 296.11 563.49 385.11 563.49 385.11 554.49 306.11 554.49"/><polygon class="cls-24" points="306.11 554.49 385.11 554.49 385.11 536.49 355.11 536.49 355.11 490.49 385.11 490.49 385.11 470.49 306.11 470.49 306.11 554.49"/><rect class="cls-9" x="355.11" y="490.49" width="30" height="46"/><rect class="cls-25" x="355.11" y="490.49" width="57" height="46"/><rect class="cls-17" x="318.11" y="521.49" width="133" height="7"/><rect class="cls-20" x="385.11" y="521.49" width="66" height="7"/><path class="cls-1" d="M361.48,674.58c.83,6.39,1.54,13.43,2.06,21.19l8.32-9.72Z" transform="translate(-15.39 -93.85)"/><polygon class="cls-1" points="368.13 578.57 355.71 565.89 345.84 575.16 358.79 589.48 368.13 578.57"/><path class="cls-1" d="M364.6,722.68l7-7.86-7.47-9.11Q364.48,713.73,364.6,722.68Z" transform="translate(-15.39 -93.85)"/><polygon class="cls-1" points="358.87 594.85 348.91 606.5 358.59 618.29 369.25 606.32 358.87 594.85"/><path class="cls-1" d="M355.36,643.7a193.7,193.7,0,0,1,4.73,21.51l8.53-8Z" transform="translate(-15.39 -93.85)"/><polygon class="cls-1" points="372.94 578.4 384.38 589.78 385.11 589.33 385.11 565.87 384.38 565.36 372.94 578.4"/><polygon class="cls-1" points="374.02 606.3 384.38 617.43 385.11 616.95 385.11 595.47 384.38 594.98 374.02 606.3"/><polygon class="cls-1" points="360.87 621.07 370.86 633.24 381.75 620.12 371.65 608.96 360.87 621.07"/><polygon class="cls-1" points="361.19 592.13 371.62 603.65 381.67 592.37 370.63 581.1 361.19 592.13"/><polygon class="cls-1" points="381.64 562.78 370.22 552.28 358.3 563.47 370.44 575.86 381.64 562.78"/><path class="cls-16" d="M399.77,711.28l-10.22-11.13,10.29-11.32.66.49v-6.14l-.73.45-11.3-11.38,11.37-13,.66.51v-6.08l-.73.41-12.29-11.5c-.24-5.8-3.1-14.22-5.09-20.22h-3.78c1.92,6,4.93,14.6,5.18,20.31l-12.58,12L353,635.79a80.53,80.53,0,0,0-5.81-13.46h-6.14c6.08,10,18.27,37,18.27,107.21a2.81,2.81,0,0,0,2.66,2.83,2.59,2.59,0,0,0,2.66-2.58v-1.86l9.23-10.35,12.36,15.08,13.54-16,.73.53v-6.43Zm-2.71-25.07L387,697.5,376.58,686,386,675Zm-11.45-40.08L397,656.63l-11.19,13.08-12.14-12.39Zm-25.52,19.08a193.7,193.7,0,0,0-4.73-21.51l13.26,13.51Zm11-5.47,12.42,12.67-9.34,10.92L361.23,669Zm-7.56,36c-.52-7.76-1.23-14.8-2.06-21.19l10.38,11.47Zm1.06,26.91q-.12-9-.48-17l7.47,9.11Zm-.3-22.34,10-11.64,10.38,11.47-10.66,12Zm21.94,26.75-10-12.17L387,702.81,397.14,714Z" transform="translate(-15.39 -93.85)"/><path class="cls-19" d="M425.09,717.61,434.33,728c0,.64,0,1.26,0,1.91a2.66,2.66,0,0,0,2.66,2.66,3,3,0,0,0,2.66-3c0-69.79,12.31-97.21,18.37-107.21h-6.24a81.5,81.5,0,0,0-5.8,13.54l-18.21,18.75-12.58-12.07c.24-5.7,3.25-14.22,5.17-20.22h-3.78c-2,6-4.41,14.43-4.65,20.23L400.5,653.64v6.08l10.72,12.53L400.5,683.18v6.14l9.64,10.83-9.64,10.64v6.43L413,732.67Zm-.11-5.47-10.66-12L424.7,688.7l10,11.64Zm9.39,10.54-7-7.86,7.48-9.11C434.61,711.06,434.44,716.71,434.37,722.68Zm1.05-26.91-8.31-9.72,10.38-11.47C436.65,681,436,688,435.42,695.77Zm8.18-52.07a193.7,193.7,0,0,0-4.73,21.51l-8.52-8Zm-15.74,16,9.88,9.27-13,14.32-9.34-10.92Zm-25.92-3.11,11.41-10.5,11.93,11.19-12.15,12.39Zm0,29.58L413,675l9.43,11L412,697.5ZM401.83,714l10.1-11.16,10.78,12.11-10,12.17Z" transform="translate(-15.39 -93.85)"/><path class="cls-26" d="M185.83,627.86c-9.77-16.12-31.12-17.57-31.12-17.57l-87-10.84-.82,13.19c.62,3.48,5.42,4.7,5.42,4.7l31,9.79c19.16,5,36,30.82,36,30.82s14.13,14.42,34.38.44C189.39,647.59,187.5,633.64,185.83,627.86Z" transform="translate(-15.39 -93.85)"/><path class="cls-22" d="M185.83,627.86a19.45,19.45,0,0,0-1-2.69C176.43,594.35,156,592.1,156,592.1l-80.32-8.84c-6.16-.74-7.55,4.25-7.55,4.25l-.33,11.66,0,.28,87,10.84S176.06,611.74,185.83,627.86Z" transform="translate(-15.39 -93.85)"/><polygon class="cls-27" points="109.79 494.87 110.77 505.97 131.01 509.07 128.77 496.95 109.79 494.87"/><polygon class="cls-28" points="121.2 507.57 131.01 509.07 128.77 496.95 121.2 507.57"/><path class="cls-1" d="M208.48,641.8c-1.6,1.78-1.59,6.52-1.43,8.2l-.05,0v.06a26.28,26.28,0,0,1-.85,6.23C209.47,653.44,210.26,647.75,208.48,641.8Z" transform="translate(-15.39 -93.85)"/><path class="cls-1" d="M206.27,659.88a11,11,0,0,1-1.61.72c-5.29,12.46-20.59,24.59-50.84,27.24-20.56,1.8-37.9,10-37.94,17.86,0,7.7,16.44,13.93,44.05,16.65,3.16.31,6.28.47,9.24.47,30.53,0,43.69-16.29,49.35-30,8-19.32,4.18-41.28-1.87-47.32a18.44,18.44,0,0,0-5.14-4C213.59,649.34,211.71,656.82,206.27,659.88Z" transform="translate(-15.39 -93.85)"/><path class="cls-1" d="M207,640.45a4,4,0,0,1,.78-.65,26.28,26.28,0,0,0-1.45-3c-4.63-8.23-12.85-12.42-18.32-9.34s-6.15,12.27-1.52,20.5c4.34,7.71,11.82,11.88,17.25,9.84a25,25,0,0,0,1.37-7.63C205,649.19,204.58,643.11,207,640.45Z" transform="translate(-15.39 -93.85)"/><path class="cls-27" d="M208.49,641.79h0c1.78,6,.92,11.64-2.4,14.54a28.76,28.76,0,0,1-1.42,4.26,11,11,0,0,0,1.61-.72c5.44-3.06,7.32-10.54,5.24-18.29a4,4,0,0,0-1.64-.42A1.76,1.76,0,0,0,208.49,641.79Z" transform="translate(-15.39 -93.85)"/><path class="cls-27" d="M186.49,647.92c-4.63-8.23-4-17.43,1.52-20.5s13.69,1.11,18.32,9.34a26.28,26.28,0,0,1,1.45,3,3.73,3.73,0,0,1,2.09-.63,4.84,4.84,0,0,1,.91.09,28.26,28.26,0,0,0-1.84-4c-5.44-9.67-15.49-14.38-22.4-10.49s-8.11,14.92-2.67,24.59c4.48,8,12.07,12.54,18.47,11.76a27,27,0,0,0,1.4-3.39C198.31,659.8,190.83,655.63,186.49,647.92Z" transform="translate(-15.39 -93.85)"/><path class="cls-16" d="M207,650.05l.05,0c-.16-1.68-.14-6.42,1.46-8.2-.2-.66-.44-1.33-.71-2a4,4,0,0,0-.79.65c-2.42,2.66-2,8.74-1.89,9.68a25.33,25.33,0,0,1-1.38,7.63,7.85,7.85,0,0,0,1.06-.49,9.22,9.22,0,0,0,1.35-.93,26.28,26.28,0,0,0,.85-6.23Z" transform="translate(-15.39 -93.85)"/><path class="cls-16" d="M218.07,644.13c-2.9-2.89-5.29-4.49-7.29-4.87.28.78.52,1.55.73,2.33a18.44,18.44,0,0,1,5.14,4c6,6,9.87,28,1.87,47.32-5.66,13.66-18.82,30-49.35,30-3,0-6.08-.16-9.24-.47-27.61-2.72-44.1-9-44.05-16.65,0-7.88,17.38-16.06,37.94-17.86,30.25-2.65,45.55-14.78,50.84-27.24a10.88,10.88,0,0,1-2.32.55c-5.62,11.37-20.3,22.22-48.57,24.7-22.28,1.95-39.78,10.66-39.83,19.84s16.22,15.73,45.82,18.65c3.23.32,6.4.48,9.43.48,31.63,0,45.29-17,51.19-31.18C228.16,674.84,225.53,651.59,218.07,644.13Z" transform="translate(-15.39 -93.85)"/><path class="cls-16" d="M207.78,639.8c.27.67.49,1.34.7,2h0a1.76,1.76,0,0,1,1.38-.62,4,4,0,0,1,1.64.42c-.21-.78-.45-1.55-.73-2.33a4.84,4.84,0,0,0-.91-.09A3.73,3.73,0,0,0,207.78,639.8Z" transform="translate(-15.39 -93.85)"/><path class="cls-27" d="M206.08,656.34a8.07,8.07,0,0,1-1.28.93,8.46,8.46,0,0,1-1.06.49,27,27,0,0,1-1.4,3.39,10.88,10.88,0,0,0,2.32-.55A28.76,28.76,0,0,0,206.08,656.34Z" transform="translate(-15.39 -93.85)"/><path class="cls-29" d="M185.83,627.86c-9.77-16.12-31.12-17.57-31.12-17.57l-87-10.84-.38,6.1c17.89,3.84,50.7,11.94,75.67,24.11a18.1,18.1,0,1,1,28.92,21.57,26.61,26.61,0,0,1,3.21,6.15C189.27,646.73,187.44,633.46,185.83,627.86Z" transform="translate(-15.39 -93.85)"/><path class="cls-27" d="M143,629.66a18.1,18.1,0,0,0,28.92,21.57C166.27,643,155.65,635.81,143,629.66Z" transform="translate(-15.39 -93.85)"/><path class="cls-30" d="M158.36,621.15A18.09,18.09,0,0,0,143,629.66c12.63,6.15,23.25,13.35,28.92,21.57a18.09,18.09,0,0,0-13.58-30.08Z" transform="translate(-15.39 -93.85)"/><path class="cls-31" d="M472.67,413.88A72.68,72.68,0,0,1,400,486.55h-.22a72.67,72.67,0,0,1-12.46-144.24c.89-.16,1.78-.31,2.68-.42a71.71,71.71,0,0,1,9.78-.69H400a72,72,0,0,1,10.34.74c.78.1,1.56.23,2.33.37a72.71,72.71,0,0,1,60,71.57Z" transform="translate(-15.39 -93.85)"/><path class="cls-16" d="M400,475.58a61.71,61.71,0,1,1,61.71-61.7A61.77,61.77,0,0,1,400,475.58Z" transform="translate(-15.39 -93.85)"/><rect class="cls-31" x="371.94" y="236.63" width="25.34" height="14.13"/><path class="cls-31" d="M422.68,324.88a5.6,5.6,0,0,1-5.6,5.6h-34.6a5.6,5.6,0,0,1,0-11.2h34.6A5.6,5.6,0,0,1,422.68,324.88Z" transform="translate(-15.39 -93.85)"/><polygon class="cls-31" points="347.09 258.47 335.24 267.71 334.78 267.14 330.08 261.1 341.94 251.86 346.73 258 347.09 258.47"/><path class="cls-31" d="M359.39,344.1l-2.06,1.61L345.47,355l-2.27,1.76a3.26,3.26,0,0,1-2,.7,3.32,3.32,0,0,1-2-5.94l16.19-12.61a3.32,3.32,0,1,1,4.08,5.24Z" transform="translate(-15.39 -93.85)"/><rect class="cls-31" x="440.21" y="346.12" width="8.38" height="15.03" transform="translate(-123.07 393.02) rotate(-52.08)"/><path class="cls-31" d="M438.41,339.44a3.31,3.31,0,0,1,4.66-.58l16.19,12.61a3.33,3.33,0,0,1,.58,4.66h0a3.33,3.33,0,0,1-4.67.58L439,344.1a3.32,3.32,0,0,1-.57-4.66Z" transform="translate(-15.39 -93.85)"/><path class="cls-31" d="M405,362.17a4.76,4.76,0,1,1-4.75-4.75A4.75,4.75,0,0,1,405,362.17Z" transform="translate(-15.39 -93.85)"/><path class="cls-31" d="M405,465.23a4.76,4.76,0,1,1-4.75-4.75A4.75,4.75,0,0,1,405,465.23Z" transform="translate(-15.39 -93.85)"/><path class="cls-31" d="M353.84,414.05a4.76,4.76,0,1,1-4.76-4.75A4.76,4.76,0,0,1,353.84,414.05Z" transform="translate(-15.39 -93.85)"/><path class="cls-31" d="M455.46,414.05a4.76,4.76,0,1,1-4.76-4.75A4.76,4.76,0,0,1,455.46,414.05Z" transform="translate(-15.39 -93.85)"/><path class="cls-31" d="M404,416.92a4,4,0,0,1-4,4h0a4,4,0,0,1-4-4V377.08a4,4,0,0,1,4-4h0a4,4,0,0,1,4,4Z" transform="translate(-15.39 -93.85)"/><path class="cls-31" d="M402.79,419.72a3.94,3.94,0,0,1-5.59,0h0a4,4,0,0,1,0-5.6L425.37,386a4,4,0,0,1,5.59,0h0a4,4,0,0,1,0,5.6Z" transform="translate(-15.39 -93.85)"/><path class="cls-31" d="M400.27,291.45h-.49c-18.12.19-32.78,11.71-32.78,25.84,0,10.69,8.4,19.89,20.32,23.82.88.29,1.77.54,2.68.77a41.44,41.44,0,0,0,9.78,1.25h.49a42.28,42.28,0,0,0,10.07-1.21c.79-.2,1.56-.41,2.33-.65,12.21-3.83,20.86-13.14,20.86-24C433.53,303,418.61,291.45,400.27,291.45Zm12.4,45.75a37.63,37.63,0,0,1-12.4,2.06h-.49A37.32,37.32,0,0,1,387.32,337c-9.72-3.59-16.42-11.08-16.42-19.71,0-12,12.9-21.76,28.88-21.95h.49c16.19,0,29.37,9.85,29.37,22C429.64,326.1,422.69,333.7,412.67,337.2Z" transform="translate(-15.39 -93.85)"/><path class="cls-32" d="M370.9,317.3c0,8.63,6.7,16.12,16.42,19.71v-6.53h-4.84a5.6,5.6,0,0,1,0-11.2h17.3V486.55A72.67,72.67,0,0,1,350.17,361l-4.7-6-2.27,1.76a3.26,3.26,0,0,1-2,.7,3.32,3.32,0,0,1-2-5.94l16.19-12.61a3.32,3.32,0,1,1,4.08,5.24l-2.06,1.61,4.78,6.13a72.19,72.19,0,0,1,25.21-9.53v-1.19C375.4,337.19,367,328,367,317.3c0-14.13,14.66-25.65,32.78-25.84v3.89C383.8,295.54,370.9,305.32,370.9,317.3Z" transform="translate(-15.39 -93.85)"/></g></g></svg>